<mxfile host="app.diagrams.net" modified="2021-06-21T14:16:38.393Z" agent="5.0 (X11; CrOS aarch64 13904.55.0) AppleWebKit/537.36 (KHTML, like Gecko) Chrome/91.0.4472.102 Safari/537.36" etag="wNMEItkyi9ssSdifCyyq" version="14.8.0" type="github">
  <diagram id="Eaekj4NUdXgFR7wAzMmF" name="Page-1">
    <mxGraphModel dx="852" dy="514" grid="1" gridSize="10" guides="1" tooltips="1" connect="1" arrows="1" fold="1" page="1" pageScale="1" pageWidth="850" pageHeight="1100" math="0" shadow="0">
      <root>
        <mxCell id="0" />
        <mxCell id="1" parent="0" />
        <mxCell id="rfm2NaiewIqItKJSmEnK-8" style="edgeStyle=orthogonalEdgeStyle;rounded=0;orthogonalLoop=1;jettySize=auto;html=1;exitX=0.5;exitY=1;exitDx=0;exitDy=0;entryX=0.5;entryY=0;entryDx=0;entryDy=0;" edge="1" parent="1" source="rfm2NaiewIqItKJSmEnK-1" target="rfm2NaiewIqItKJSmEnK-2">
          <mxGeometry relative="1" as="geometry" />
        </mxCell>
        <mxCell id="rfm2NaiewIqItKJSmEnK-10" style="edgeStyle=orthogonalEdgeStyle;rounded=0;orthogonalLoop=1;jettySize=auto;html=1;exitX=0.5;exitY=1;exitDx=0;exitDy=0;" edge="1" parent="1" source="rfm2NaiewIqItKJSmEnK-1" target="rfm2NaiewIqItKJSmEnK-3">
          <mxGeometry relative="1" as="geometry" />
        </mxCell>
        <mxCell id="rfm2NaiewIqItKJSmEnK-12" style="edgeStyle=orthogonalEdgeStyle;rounded=0;orthogonalLoop=1;jettySize=auto;html=1;exitX=0.5;exitY=1;exitDx=0;exitDy=0;entryX=0.5;entryY=0;entryDx=0;entryDy=0;" edge="1" parent="1" source="rfm2NaiewIqItKJSmEnK-1" target="rfm2NaiewIqItKJSmEnK-6">
          <mxGeometry relative="1" as="geometry" />
        </mxCell>
        <mxCell id="rfm2NaiewIqItKJSmEnK-1" value="Voting Program" style="rounded=0;whiteSpace=wrap;html=1;" vertex="1" parent="1">
          <mxGeometry x="360" y="240" width="120" height="60" as="geometry" />
        </mxCell>
        <mxCell id="rfm2NaiewIqItKJSmEnK-9" style="edgeStyle=orthogonalEdgeStyle;rounded=0;orthogonalLoop=1;jettySize=auto;html=1;exitX=0.5;exitY=1;exitDx=0;exitDy=0;entryX=0.5;entryY=0;entryDx=0;entryDy=0;" edge="1" parent="1" source="rfm2NaiewIqItKJSmEnK-2" target="rfm2NaiewIqItKJSmEnK-4">
          <mxGeometry relative="1" as="geometry" />
        </mxCell>
        <mxCell id="rfm2NaiewIqItKJSmEnK-2" value="Input" style="rounded=0;whiteSpace=wrap;html=1;" vertex="1" parent="1">
          <mxGeometry x="200" y="340" width="120" height="60" as="geometry" />
        </mxCell>
        <mxCell id="rfm2NaiewIqItKJSmEnK-11" style="edgeStyle=orthogonalEdgeStyle;rounded=0;orthogonalLoop=1;jettySize=auto;html=1;exitX=0.5;exitY=1;exitDx=0;exitDy=0;entryX=0.5;entryY=0;entryDx=0;entryDy=0;" edge="1" parent="1" source="rfm2NaiewIqItKJSmEnK-3" target="rfm2NaiewIqItKJSmEnK-5">
          <mxGeometry relative="1" as="geometry" />
        </mxCell>
        <mxCell id="rfm2NaiewIqItKJSmEnK-3" value="Process" style="rounded=0;whiteSpace=wrap;html=1;" vertex="1" parent="1">
          <mxGeometry x="360" y="340" width="120" height="60" as="geometry" />
        </mxCell>
        <mxCell id="rfm2NaiewIqItKJSmEnK-4" value="Get age" style="rounded=0;whiteSpace=wrap;html=1;" vertex="1" parent="1">
          <mxGeometry x="200" y="430" width="120" height="60" as="geometry" />
        </mxCell>
        <mxCell id="rfm2NaiewIqItKJSmEnK-5" value="Check if answer = yes or no" style="rounded=0;whiteSpace=wrap;html=1;" vertex="1" parent="1">
          <mxGeometry x="360" y="430" width="120" height="60" as="geometry" />
        </mxCell>
        <mxCell id="rfm2NaiewIqItKJSmEnK-13" style="edgeStyle=orthogonalEdgeStyle;rounded=0;orthogonalLoop=1;jettySize=auto;html=1;exitX=0.5;exitY=1;exitDx=0;exitDy=0;entryX=0.5;entryY=0;entryDx=0;entryDy=0;" edge="1" parent="1" source="rfm2NaiewIqItKJSmEnK-6" target="rfm2NaiewIqItKJSmEnK-7">
          <mxGeometry relative="1" as="geometry" />
        </mxCell>
        <mxCell id="rfm2NaiewIqItKJSmEnK-6" value="Output" style="rounded=0;whiteSpace=wrap;html=1;" vertex="1" parent="1">
          <mxGeometry x="520" y="340" width="120" height="60" as="geometry" />
        </mxCell>
        <mxCell id="rfm2NaiewIqItKJSmEnK-7" value="Show if eligible to vote" style="rounded=0;whiteSpace=wrap;html=1;" vertex="1" parent="1">
          <mxGeometry x="520" y="430" width="120" height="60" as="geometry" />
        </mxCell>
      </root>
    </mxGraphModel>
  </diagram>
</mxfile>
